<svg width="29" height="34" viewBox="0 0 29 34" fill="none" xmlns="http://www.w3.org/2000/svg">
<path d="M23.6392 4.34276C23.5105 4.34308 23.3842 4.3089 23.2733 4.24378C20.2212 2.61066 17.5824 1.91783 14.4189 1.91783C11.2712 1.91783 8.28239 2.69314 5.56384 4.24378C5.17941 4.46098 4.70557 4.30977 4.48275 3.91111C4.38329 3.7187 4.36085 3.49566 4.42 3.28731C4.47914 3.07896 4.61542 2.90092 4.80116 2.78937C7.73316 1.12737 11.0482 0.258382 14.4189 0.26821C17.8046 0.26821 20.7617 1.04353 24.005 2.77563C24.1942 2.87961 24.3352 3.05358 24.3975 3.26021C24.4599 3.46683 24.4387 3.68966 24.3386 3.88087C24.2784 4.01663 24.1805 4.13229 24.0565 4.21415C23.9326 4.29602 23.7877 4.34065 23.6392 4.34276ZM0.890103 13.0032C0.724927 13.0021 0.564091 12.9502 0.429332 12.8548C0.254003 12.7246 0.136089 12.5314 0.100426 12.316C0.0647638 12.1006 0.114137 11.8798 0.238146 11.7C1.81233 9.39059 3.81428 7.57601 6.19998 6.3058C11.1914 3.63617 17.5824 3.61693 22.5897 6.28931C24.9747 7.55951 26.9773 9.35759 28.5515 11.6506C28.675 11.8305 28.7241 12.0511 28.6885 12.2664C28.6528 12.4816 28.5352 12.6747 28.3603 12.8053C28.2755 12.8687 28.1785 12.914 28.0754 12.9384C27.9724 12.9628 27.8654 12.9659 27.7611 12.9473C27.6568 12.9288 27.5574 12.889 27.4691 12.8305C27.3807 12.7721 27.3054 12.6961 27.2476 12.6073C25.8172 10.5288 24.005 8.8957 21.8587 7.75747C17.2963 5.33253 11.4617 5.33253 6.91521 7.77396C4.75302 8.92869 2.94088 10.5783 1.51043 12.6541C1.44874 12.7633 1.35833 12.8536 1.24899 12.9151C1.13965 12.9767 1.01554 13.0071 0.890103 13.0032ZM10.8256 32.9169C10.7205 32.9179 10.6165 32.8963 10.5205 32.8536C10.4245 32.8109 10.3388 32.7481 10.2692 32.6694C8.88621 31.2315 8.1366 30.305 7.07407 28.3117C5.97372 26.2826 5.40498 23.8082 5.40498 21.1523C5.40498 16.253 9.44258 12.2609 14.4031 12.2609C19.3636 12.2609 23.404 16.253 23.404 21.1523C23.4071 21.2586 23.3888 21.3644 23.3503 21.4635C23.3118 21.5626 23.2538 21.653 23.1797 21.7292C23.1056 21.8055 23.0169 21.8661 22.9189 21.9075C22.821 21.9489 22.7157 21.9703 22.6093 21.9703C22.5029 21.9703 22.3976 21.9489 22.2997 21.9075C22.2017 21.8661 22.113 21.8055 22.0389 21.7292C21.9648 21.653 21.9068 21.5626 21.8683 21.4635C21.8298 21.3644 21.8115 21.2586 21.8146 21.1523C21.8146 17.1603 18.4916 13.9105 14.4065 13.9105C10.3215 13.9105 6.99498 17.1603 6.99498 21.1523C6.99498 23.5278 7.50321 25.7218 8.47289 27.5034C9.49072 29.4004 10.1922 30.2087 11.4143 31.4954C11.5592 31.6556 11.6394 31.8638 11.6394 32.0797C11.6394 32.2956 11.5592 32.5038 11.4143 32.6639C11.2582 32.8213 11.0472 32.9119 10.8256 32.9169ZM22.2245 29.8651C20.3326 29.8651 18.6635 29.3702 17.2963 28.3969C16.1315 27.5809 15.1799 26.4972 14.5217 25.2369C13.8634 23.9766 13.5178 22.5767 13.5139 21.1551C13.5094 21.048 13.5267 20.941 13.5646 20.8408C13.6026 20.7405 13.6604 20.6489 13.7347 20.5715C13.8089 20.4941 13.8981 20.4326 13.9968 20.3905C14.0954 20.3485 14.2016 20.3268 14.3089 20.3268C14.4162 20.3268 14.5223 20.3485 14.621 20.3905C14.7197 20.4326 14.8088 20.4941 14.8831 20.5715C14.9573 20.6489 15.0152 20.7405 15.0531 20.8408C15.0911 20.941 15.1083 21.048 15.1039 21.1551C15.1065 22.3098 15.3883 23.4468 15.9252 24.4693C16.4622 25.4918 17.2383 26.3695 18.1876 27.0277C19.3162 27.8195 20.6359 28.1962 22.2259 28.1962C22.7797 28.1864 23.3317 28.1312 23.8764 28.0312C24.3056 27.9488 24.7189 28.2457 24.798 28.7076C24.8383 28.9207 24.7923 29.1412 24.6702 29.3205C24.5481 29.4999 24.3599 29.6235 24.1467 29.6644C23.5134 29.7894 22.87 29.8557 22.2245 29.8623V29.8651ZM19.0287 33.2605C18.9589 33.2576 18.8896 33.2466 18.8224 33.2275C16.2943 32.5017 14.641 31.5284 12.908 29.7633C10.6818 27.4704 9.45839 24.4186 9.45839 21.1523C9.45839 18.48 11.6522 16.3025 14.3543 16.3025C17.0563 16.3025 19.2508 18.48 19.2508 21.1523C19.2508 22.9174 20.7294 24.3526 22.5574 24.3526C24.3853 24.3526 25.8639 22.9174 25.8639 21.1523C25.8639 14.9333 20.6971 9.88547 14.3384 9.88547C9.82357 9.88547 5.69038 12.4919 3.83079 16.5334C3.21184 17.8696 2.89274 19.4367 2.89274 21.1523C2.89274 22.439 3.00346 24.4681 3.95733 27.1075C4.11688 27.5364 3.90988 28.0147 3.49656 28.1632C3.39833 28.2006 3.29356 28.2178 3.18853 28.2136C3.0835 28.2095 2.98039 28.1843 2.88538 28.1393C2.79038 28.0944 2.70544 28.0307 2.63568 27.9521C2.56592 27.8736 2.51277 27.7817 2.47942 27.6821C1.71239 25.5904 1.31944 23.3801 1.31855 21.1523C1.31855 19.1728 1.68442 17.372 2.39965 15.8076C4.51438 11.2024 9.20394 8.21936 14.3384 8.21936C21.5719 8.21936 27.4539 14.0095 27.4539 21.1358C27.4539 23.8082 25.2601 25.9857 22.5574 25.9857C19.8546 25.9857 17.6608 23.8082 17.6608 21.1358C17.6615 19.3708 16.1829 17.9328 14.355 17.9328C12.527 17.9328 11.0484 19.368 11.0484 21.1331C11.0484 23.9512 12.0979 26.5933 14.0214 28.5729C15.5344 30.1235 16.9786 30.9786 19.2199 31.6247C19.649 31.7401 19.8877 32.202 19.7762 32.6309C19.7415 32.805 19.6486 32.9622 19.5128 33.0766C19.377 33.191 19.2063 33.2558 19.0287 33.2605Z" fill="#FFFAFA"/>
</svg>
