<svg width="47" height="54" viewBox="0 0 47 54" fill="none" xmlns="http://www.w3.org/2000/svg">
<path d="M38.7733 7.18618C38.5658 7.1867 38.362 7.13166 38.1832 7.0268C33.2605 4.39712 29.0045 3.2815 23.9022 3.2815C18.8254 3.2815 14.0048 4.52993 9.62008 7.0268C9.00004 7.37654 8.2358 7.13305 7.87641 6.49113C7.716 6.1813 7.67981 5.82215 7.7752 5.48666C7.87059 5.15117 8.0904 4.8645 8.38997 4.68488C13.1189 2.00869 18.4656 0.609429 23.9022 0.625255C29.3628 0.625255 34.1324 1.87369 39.3634 4.66274C39.6686 4.83018 39.8958 5.11031 39.9964 5.44303C40.097 5.77574 40.0628 6.13453 39.9013 6.44243C39.8042 6.66103 39.6464 6.84727 39.4464 6.97909C39.2465 7.11091 39.0129 7.18278 38.7733 7.18618ZM2.08194 21.1315C1.81553 21.1296 1.55612 21.0461 1.33877 20.8924C1.05599 20.6827 0.865808 20.3717 0.808289 20.0248C0.75077 19.678 0.830402 19.3224 1.03041 19.033C3.56938 15.3143 6.79827 12.3924 10.6461 10.3471C18.6967 6.04842 29.0045 6.01743 37.0806 10.3205C40.9273 12.3659 44.1573 15.2612 46.6963 18.9533C46.8955 19.243 46.9746 19.5984 46.9172 19.9449C46.8597 20.2915 46.67 20.6025 46.3879 20.8127C46.2511 20.9148 46.0947 20.9877 45.9284 21.0271C45.7622 21.0664 45.5896 21.0713 45.4214 21.0414C45.2531 21.0115 45.0929 20.9475 44.9504 20.8534C44.808 20.7592 44.6864 20.6369 44.5933 20.494C42.2861 17.1471 39.3634 14.5174 35.9015 12.6846C28.5431 8.77992 19.1326 8.77992 11.7997 12.7112C8.31233 14.5705 5.38958 17.2268 3.08244 20.5692C2.98295 20.7451 2.83713 20.8905 2.66078 20.9896C2.48442 21.0887 2.28424 21.1377 2.08194 21.1315ZM18.1066 53.1967C17.9371 53.1984 17.7693 53.1636 17.6145 53.0949C17.4597 53.0261 17.3215 52.925 17.2092 52.7983C14.9786 50.4829 13.7696 48.991 12.0559 45.7814C10.2812 42.5142 9.36385 38.5299 9.36385 34.2533C9.36385 26.3643 15.876 19.9361 23.8767 19.9361C31.8773 19.9361 38.3939 26.3643 38.3939 34.2533C38.399 34.4244 38.3695 34.5948 38.3074 34.7543C38.2453 34.9139 38.1517 35.0594 38.0321 35.1822C37.9126 35.305 37.7696 35.4027 37.6116 35.4693C37.4536 35.536 37.2838 35.5703 37.1122 35.5703C36.9407 35.5703 36.7709 35.536 36.6128 35.4693C36.4548 35.4027 36.3118 35.305 36.1923 35.1822C36.0728 35.0594 35.9792 34.9139 35.9171 34.7543C35.8549 34.5948 35.8255 34.4244 35.8306 34.2533C35.8306 27.8252 30.4709 22.5924 23.8822 22.5924C17.2935 22.5924 11.9283 27.8252 11.9283 34.2533C11.9283 38.0783 12.748 41.6111 14.312 44.4798C15.9536 47.5345 17.085 48.8361 19.0561 50.9079C19.2898 51.1658 19.4193 51.501 19.4193 51.8487C19.4193 52.1964 19.2898 52.5316 19.0561 52.7895C18.8044 53.0428 18.464 53.1888 18.1066 53.1967ZM36.4916 48.2827C33.4402 48.2827 30.7482 47.4858 28.5431 45.9186C26.6644 44.6047 25.1296 42.8596 24.068 40.8303C23.0063 38.801 22.4488 36.5469 22.4425 34.2577C22.4353 34.0852 22.4631 33.9131 22.5243 33.7516C22.5855 33.5901 22.6788 33.4426 22.7986 33.318C22.9184 33.1935 23.0621 33.0943 23.2213 33.0266C23.3804 32.9589 23.5517 32.924 23.7247 32.924C23.8977 32.924 24.069 32.9589 24.2281 33.0266C24.3873 33.0943 24.5311 33.1935 24.6508 33.318C24.7706 33.4426 24.8639 33.5901 24.9251 33.7516C24.9863 33.9131 25.0141 34.0852 25.0069 34.2577C25.0113 36.1171 25.4657 37.9479 26.3317 39.5944C27.1977 41.2408 28.4495 42.6541 29.9806 43.714C31.8008 44.9889 33.9294 45.5955 36.4939 45.5955C37.387 45.5796 38.2773 45.4908 39.1559 45.3298C39.8481 45.197 40.5147 45.6751 40.6423 46.4189C40.7073 46.7621 40.6332 47.1171 40.4363 47.4059C40.2393 47.6947 39.9357 47.8938 39.5919 47.9595C38.5705 48.1609 37.5327 48.2676 36.4916 48.2783V48.2827ZM31.3372 53.7501C31.2245 53.7455 31.1129 53.7276 31.0044 53.697C26.927 52.5283 24.2605 50.9611 21.4653 48.1189C17.8748 44.4267 15.9015 39.5127 15.9015 34.2533C15.9015 29.9502 19.4399 26.4439 23.7979 26.4439C28.156 26.4439 31.6954 29.9502 31.6954 34.2533C31.6954 37.0955 34.0802 39.4064 37.0285 39.4064C39.9767 39.4064 42.3615 37.0955 42.3615 34.2533C42.3615 24.2393 34.0281 16.1112 23.7724 16.1112C16.4905 16.1112 9.82417 20.308 6.82489 26.8158C5.82661 28.9674 5.31194 31.4908 5.31194 34.2533C5.31194 36.3252 5.49052 39.5924 7.02898 43.8423C7.28632 44.533 6.95245 45.3033 6.28582 45.5423C6.12739 45.6025 5.9584 45.6302 5.789 45.6235C5.61961 45.6169 5.4533 45.5762 5.30007 45.5039C5.14684 45.4315 5.00985 45.329 4.89733 45.2024C4.78481 45.0759 4.69909 44.928 4.6453 44.7676C3.40817 41.3995 2.77441 37.8405 2.77297 34.2533C2.77297 31.0658 3.36307 28.1661 4.51664 25.6471C7.92744 18.2317 15.4911 13.4283 23.7724 13.4283C35.439 13.4283 44.926 22.7518 44.926 34.2267C44.926 38.5299 41.3877 42.0361 37.0285 42.0361C32.6693 42.0361 29.131 38.5299 29.131 34.2267C29.1321 31.3846 26.7473 29.0692 23.799 29.0692C20.8508 29.0692 18.466 31.3801 18.466 34.2223C18.466 38.7601 20.1586 43.0145 23.2611 46.202C25.7013 48.6988 28.0306 50.0757 31.6455 51.116C32.3377 51.302 32.7226 52.0457 32.5429 52.7363C32.4869 53.0167 32.3371 53.2697 32.118 53.4539C31.8989 53.6381 31.6236 53.7426 31.3372 53.7501Z" fill="#FFFAFA"/>
</svg>
