<svg width="54" height="54" viewBox="0 0 54 54" fill="none" xmlns="http://www.w3.org/2000/svg">
<path d="M20.5979 51.5425L30.6869 47.2476C30.871 48.4914 30.6382 49.7614 30.0249 50.8582C29.4117 51.955 28.4528 52.8167 27.2986 53.308C26.1444 53.7993 24.8603 53.8926 23.6476 53.573C22.4349 53.2535 21.3622 52.5393 20.5979 51.5425ZM35.9835 0.89568C41.8919 4.1339 46.3275 8.28961 49.2449 13.3571C52.1622 18.4247 53.536 24.3557 53.3773 31.1048C53.3642 31.6698 53.1278 32.2065 52.7201 32.5967C52.3124 32.9869 51.7669 33.1987 51.2035 33.1855C50.6401 33.1723 50.105 32.9352 49.7159 32.5264C49.3268 32.1175 49.1156 31.5704 49.1287 31.0054C49.2704 25.0062 48.0751 19.8478 45.5656 15.4875C43.056 11.1273 39.1955 7.5113 33.947 4.63667C33.4524 4.36546 33.0854 3.90829 32.9268 3.36573C32.7683 2.82317 32.8311 2.23967 33.1016 1.74358C33.372 1.24749 33.8279 0.879464 34.3689 0.720452C34.9099 0.56144 35.4917 0.624471 35.9864 0.89568H35.9835ZM10.067 13.4537C13.9643 11.7084 18.3844 11.546 22.3985 13.0006C26.4127 14.4551 29.7085 17.4134 31.5933 21.2538L31.8709 21.8503L35.519 30.0623L40.3284 34.2379C40.5919 34.4652 40.8184 34.7322 41.0819 35.1611L41.249 35.4849C41.4376 35.9115 41.5406 36.3711 41.552 36.8375C41.5634 37.304 41.483 37.7681 41.3155 38.2034C41.1479 38.6387 40.8964 39.0366 40.5754 39.3743C40.2545 39.7121 39.8702 39.9831 39.4447 40.1718L10.1916 53.1503C9.65277 53.3889 9.06304 53.489 8.47588 53.4414C7.88872 53.3937 7.32268 53.1999 6.82906 52.8775C6.33544 52.5551 5.92984 52.1143 5.649 51.595C5.36817 51.0757 5.22097 50.4943 5.22076 49.9035L5.21793 43.2481L1.70008 35.3173C0.81496 33.3314 0.329212 31.1898 0.270658 29.0153C0.212105 26.8408 0.581897 24.6761 1.35885 22.6452C2.13581 20.6142 3.30467 18.7569 4.79847 17.1797C6.29227 15.6025 8.08451 14.3363 10.067 13.4537ZM5.58048 33.5875L9.46654 42.3448V48.8127L36.703 36.7262L32.021 32.6643L28.0075 23.6228L27.7667 23.1059C26.3632 20.2622 23.9161 18.0742 20.9388 17.0007C17.9615 15.9272 14.6853 16.0517 11.7976 17.3481C10.3241 18.0025 8.99395 18.9423 7.88345 20.1135C6.77294 21.2846 5.90395 22.6642 5.32633 24.173C4.7487 25.6817 4.47381 27.2901 4.51742 28.9056C4.56104 30.5212 4.9223 32.1122 5.58048 33.5875ZM35.3123 11.1245C38.0512 12.6214 40.2463 14.8001 41.8721 17.6265C43.4979 20.4528 44.2825 23.4496 44.206 26.5742C44.1993 26.8539 44.1377 27.1296 44.0248 27.3855C43.9118 27.6414 43.7498 27.8725 43.5478 28.0656C43.3458 28.2587 43.1078 28.41 42.8475 28.5108C42.5872 28.6117 42.3097 28.6602 42.0307 28.6534C41.7518 28.6467 41.4768 28.585 41.2217 28.4717C40.9665 28.3584 40.7361 28.1959 40.5435 27.9933C40.351 27.7907 40.2002 27.5521 40.0996 27.2911C39.999 27.03 39.9507 26.7517 39.9574 26.4719C40.014 24.137 39.4334 21.9128 38.1928 19.7569C36.9522 17.5981 35.3208 15.9789 33.2786 14.8655C32.7839 14.595 32.4166 14.1386 32.2576 13.5965C32.0985 13.0545 32.1606 12.4713 32.4303 11.9752C32.7 11.4791 33.1551 11.1108 33.6956 10.9512C34.236 10.7917 34.8176 10.854 35.3123 11.1245Z" fill="#FFFAFA"/>
</svg>
