<svg width="34" height="34" viewBox="0 0 34 34" fill="none" xmlns="http://www.w3.org/2000/svg">
<path d="M13.6073 32.0032L19.8641 29.3397C19.9782 30.111 19.8338 30.8986 19.4536 31.5788C19.0733 32.259 18.4786 32.7933 17.7628 33.098C17.0471 33.4028 16.2507 33.4606 15.4986 33.2624C14.7465 33.0643 14.0813 32.6214 13.6073 32.0032ZM23.1488 0.594286C26.8129 2.60248 29.5637 5.17967 31.3729 8.32232C33.1821 11.465 34.034 15.1431 33.9357 19.3286C33.9275 19.679 33.7809 20.0118 33.5281 20.2538C33.2753 20.4958 32.9369 20.6272 32.5875 20.619C32.2381 20.6108 31.9063 20.4638 31.665 20.2102C31.4237 19.9567 31.2927 19.6174 31.3009 19.267C31.3887 15.5465 30.6474 12.3475 29.0912 9.6435C27.5349 6.93948 25.1407 4.69699 21.8859 2.91428C21.5791 2.74609 21.3515 2.46257 21.2532 2.1261C21.1549 1.78963 21.1938 1.42777 21.3615 1.12012C21.5292 0.812465 21.812 0.584229 22.1475 0.485617C22.483 0.387005 22.8438 0.426094 23.1506 0.594286H23.1488ZM7.07654 8.38221C9.49345 7.29987 12.2346 7.19914 14.724 8.10119C17.2134 9.00323 19.2573 10.8378 20.4262 13.2195L20.5983 13.5894L22.8607 18.6821L25.8433 21.2717C26.0067 21.4126 26.1472 21.5782 26.3106 21.8442L26.4142 22.045C26.5312 22.3095 26.5951 22.5945 26.6021 22.8838C26.6092 23.1731 26.5594 23.4609 26.4554 23.7309C26.3515 24.0008 26.1956 24.2476 25.9965 24.457C25.7974 24.6665 25.5592 24.8345 25.2953 24.9516L7.15383 33.0002C6.81965 33.1482 6.45393 33.2103 6.0898 33.1808C5.72566 33.1512 5.37463 33.031 5.06851 32.8311C4.76239 32.6311 4.51086 32.3578 4.33669 32.0357C4.16253 31.7137 4.07125 31.3531 4.07112 30.9867L4.06936 26.8594L1.88775 21.9411C1.33884 20.7095 1.0376 19.3814 1.00129 18.0328C0.964973 16.6843 1.1943 15.3418 1.67614 14.0823C2.15797 12.8228 2.88284 11.671 3.80923 10.6929C4.73562 9.71478 5.84708 8.92956 7.07654 8.38221ZM4.2942 20.8683L6.70416 26.2992V30.3103L23.595 22.8148L20.6914 20.2957L18.2024 14.6886L18.0531 14.368C17.1827 12.6045 15.6651 11.2476 13.8187 10.5819C11.9723 9.91615 9.94063 9.99337 8.14979 10.7973C7.23598 11.2032 6.41108 11.786 5.7224 12.5123C5.03371 13.2386 4.4948 14.0941 4.13658 15.0298C3.77837 15.9655 3.60789 16.9629 3.63494 17.9648C3.66199 18.9667 3.88602 19.9534 4.2942 20.8683ZM22.7325 6.93772C24.4311 7.86607 25.7924 9.2172 26.8006 10.97C27.8089 12.7227 28.2954 14.5812 28.248 16.5189C28.2439 16.6924 28.2057 16.8634 28.1356 17.0221C28.0656 17.1808 27.9651 17.3241 27.8398 17.4439C27.7145 17.5636 27.567 17.6574 27.4056 17.72C27.2441 17.7825 27.072 17.8126 26.899 17.8084C26.726 17.8042 26.5555 17.7659 26.3973 17.6957C26.239 17.6255 26.0961 17.5246 25.9767 17.399C25.8573 17.2734 25.7638 17.1254 25.7014 16.9635C25.639 16.8016 25.6091 16.629 25.6132 16.4555C25.6484 15.0075 25.2883 13.6282 24.5189 12.2911C23.7495 10.9523 22.7378 9.94825 21.4713 9.25771C21.1646 9.08999 20.9368 8.80692 20.8381 8.47078C20.7395 8.13464 20.778 7.77296 20.9452 7.46531C21.1125 7.15766 21.3947 6.92924 21.7299 6.8303C22.0651 6.73135 22.4257 6.76999 22.7325 6.93772Z" fill="#FFFAFA"/>
</svg>
