<svg width="32" height="32" viewBox="0 0 32 32" fill="none" xmlns="http://www.w3.org/2000/svg">
<g clip-path="url(#clip0_593_624)">
<path d="M31.375 2.57812V27.9688H0.125V2.57812H31.375ZM2.07812 4.53125V8.4375H29.4219V4.53125H2.07812ZM29.4219 26.0156V10.3906H2.07812V26.0156H29.4219ZM4.03125 14.2969H5.98438V24.0625H4.03125V14.2969ZM7.9375 20.1562H9.89062V24.0625H7.9375V20.1562ZM11.8438 18.2031H13.7969V24.0625H11.8438V18.2031ZM15.75 12.3438H17.7031V24.0625H15.75V12.3438ZM23.5625 14.2969H25.5156V24.0625H23.5625V14.2969ZM19.6562 18.2031H21.6094V24.0625H19.6562V18.2031Z" fill="#013096"/>
</g>
<defs>
<clipPath id="clip0_593_624">
<rect width="31.25" height="31.25" fill="white" transform="translate(0.125 0.625)"/>
</clipPath>
</defs>
</svg>
