<svg width="54" height="54" viewBox="0 0 54 54" fill="none" xmlns="http://www.w3.org/2000/svg">
<path d="M33.6915 2.48523C29.2091 2.48523 24.7267 4.19727 21.3026 7.62134C19.3208 9.60107 17.92 11.9315 17.0796 14.4114C18.8331 14.1624 20.4933 14.1312 22.1327 14.2972C22.5373 13.7266 22.9939 13.187 23.5023 12.6786C25.9199 10.2651 29.0846 9.05737 32.2596 9.05737C35.4347 9.05737 38.6097 10.2651 41.0273 12.6786C45.8625 17.5138 45.8625 25.3788 41.0273 30.2036C36.2025 35.0388 28.3271 35.0388 23.5023 30.2036C21.1988 27.9001 19.9849 24.9015 19.8811 21.8821C18.6879 22.0688 17.5154 22.4631 16.4363 23.0649C17.0381 26.489 18.6567 29.7574 21.3026 32.4033C28.1507 39.2515 39.2427 39.2618 46.0908 32.4033C52.939 25.5552 52.939 14.4736 46.0908 7.62134C42.6667 4.19727 38.1739 2.48523 33.6915 2.48523ZM15.6269 16.6837C12.732 17.4827 9.51134 19.3192 7.66338 21.2491C2.73479 26.1674 1.35478 33.2853 3.50261 39.4382C4.42711 41.9388 5.94719 44.3253 7.66338 46.0374C14.5167 52.8855 25.6086 52.8855 32.4568 46.0374C34.4386 44.0555 35.8393 41.7209 36.6798 39.2411C34.9989 39.5005 33.2972 39.542 31.6163 39.3656C31.222 39.9259 30.7655 40.4655 30.2571 40.9739C23.7513 45.0931 15.959 45.1865 12.2755 40.5173C10.1412 37.8196 8.95 34.4163 9.10564 31.6147C9.37334 27.2983 11.8916 23.3243 15.0978 21.3944C16.1561 20.7822 18.9991 19.8276 21.4894 19.8276C24.9861 19.9833 27.7772 20.9794 30.2571 23.4489C32.5709 25.7419 33.7641 28.751 33.8679 31.7808C35.0715 31.594 36.244 31.1997 37.3231 30.5979C36.3478 26.2815 34.532 23.0027 31.7305 20.5643C29.51 18.624 27.1546 17.3063 24.405 16.663C21.4582 15.9366 18.3247 15.9885 15.6269 16.6837Z" fill="#FFFAFA"/>
</svg>
