<svg width="32" height="31" viewBox="0 0 32 31" fill="none" xmlns="http://www.w3.org/2000/svg">
<path d="M20.2248 0.140564C17.4457 0.140564 14.6665 1.20205 12.5436 3.32501C11.3148 4.55247 10.4463 5.99737 9.92524 7.53491C11.0125 7.38051 12.0418 7.36121 13.0582 7.46415C13.3091 7.11032 13.5922 6.77579 13.9074 6.46056C15.4063 4.9642 17.3685 4.21537 19.337 4.21537C21.3056 4.21537 23.2742 4.9642 24.7731 6.46056C27.771 9.45845 27.771 14.3348 24.7731 17.3263C21.7817 20.3242 16.8988 20.3242 13.9074 17.3263C12.4792 15.8981 11.7265 14.0389 11.6622 12.1668C10.9224 12.2826 10.1954 12.5271 9.52638 12.9002C9.8995 15.0232 10.9031 17.0497 12.5436 18.6901C16.7895 22.9361 23.6666 22.9425 27.9125 18.6901C32.1585 14.4442 32.1585 7.57351 27.9125 3.32501C25.7896 1.20205 23.004 0.140564 20.2248 0.140564ZM9.02458 8.94379C7.22972 9.43915 5.23284 10.5778 4.08709 11.7744C1.0313 14.8238 0.175686 19.2369 1.50736 23.0518C2.08056 24.6023 3.02303 26.0819 4.08709 27.1434C8.33623 31.3893 15.2133 31.3893 19.4593 27.1434C20.688 25.9146 21.5565 24.4672 22.0776 22.9296C21.0354 23.0904 19.9804 23.1162 18.9382 23.0068C18.6937 23.3542 18.4107 23.6887 18.0954 24.004C14.0618 26.558 9.23045 26.6159 6.94665 23.7209C5.62334 22.0483 4.88481 19.9382 4.9813 18.2012C5.14728 15.525 6.70862 13.0611 8.69649 11.8645C9.35268 11.4849 11.1154 10.8931 12.6594 10.8931C14.8274 10.9896 16.5579 11.6071 18.0954 13.1382C19.53 14.56 20.2699 16.4256 20.3342 18.3041C21.0804 18.1883 21.8074 17.9439 22.4765 17.5707C21.8717 14.8945 20.7459 12.8616 19.0089 11.3498C17.6322 10.1468 16.1719 9.32978 14.4671 8.93092C12.6401 8.4806 10.6972 8.51276 9.02458 8.94379Z" fill="#FFFAFA"/>
</svg>
