<svg width="32" height="32" viewBox="0 0 32 32" fill="none" xmlns="http://www.w3.org/2000/svg">
<g clip-path="url(#clip0_593_630)">
<path d="M18.5635 1.26587C19.6519 1.64225 20.6387 2.16105 21.5237 2.82227C22.4087 3.48348 23.1665 4.25659 23.7972 5.1416C24.4279 6.02661 24.9111 6.99809 25.2468 8.05603C25.5825 9.11397 25.7555 10.2177 25.7656 11.3672C25.7656 12.832 25.4859 14.1901 24.9264 15.4413C24.3669 16.6925 23.5734 17.842 22.546 18.8898C21.8238 19.6324 21.249 20.4207 20.8218 21.2549C20.3945 22.089 20.125 23.0249 20.0131 24.0625H10.0338C9.92192 23.0249 9.65743 22.089 9.24036 21.2549C8.82328 20.4207 8.24854 19.6375 7.51611 18.905C6.49886 17.8573 5.7054 16.7078 5.13574 15.4565C4.56608 14.2053 4.28125 12.8422 4.28125 11.3672C4.28125 10.3805 4.40841 9.42932 4.66272 8.51379C4.91703 7.59827 5.27816 6.73869 5.74609 5.93506C6.21403 5.13143 6.77352 4.40918 7.42456 3.76831C8.0756 3.12744 8.79785 2.56795 9.59131 2.08984C10.3848 1.61174 11.2393 1.25061 12.1548 1.00647C13.0703 0.762329 14.0265 0.635173 15.0234 0.625C15.1353 0.625 15.2421 0.630086 15.3439 0.640259C15.4456 0.650431 15.5575 0.66569 15.6796 0.686035L9.88123 6.48438L16.7172 13.3203L12.7041 17.3334L14.4283 19.0729L20.1656 13.3203L13.3297 6.48438L18.5635 1.26587ZM10.1406 26.0156H19.9062V28.9453C19.9062 29.3522 19.83 29.7337 19.6774 30.0897C19.5248 30.4458 19.3162 30.756 19.0518 31.0205C18.7873 31.285 18.477 31.4935 18.121 31.6461C17.7649 31.7987 17.3835 31.875 16.9766 31.875H13.0703C12.6634 31.875 12.2819 31.7987 11.9259 31.6461C11.5699 31.4935 11.2596 31.285 10.9951 31.0205C10.7306 30.756 10.5221 30.4458 10.3695 30.0897C10.2169 29.7337 10.1406 29.3522 10.1406 28.9453V26.0156Z" fill="#013096"/>
</g>
<defs>
<clipPath id="clip0_593_630">
<rect width="31.25" height="31.25" fill="white" transform="translate(0.375 0.625)"/>
</clipPath>
</defs>
</svg>
