<svg width="32" height="32" viewBox="0 0 32 32" fill="none" xmlns="http://www.w3.org/2000/svg">
<g clip-path="url(#clip0_593_584)">
<path d="M11.8438 15.5495C11.4121 15.5495 10.9981 15.721 10.6929 16.0262C10.3876 16.3314 10.2161 16.7454 10.2161 17.1771C10.2161 17.6088 10.3876 18.0227 10.6929 18.328C10.9981 18.6332 11.4121 18.8047 11.8438 18.8047C12.0575 18.8047 12.2691 18.7626 12.4666 18.6808C12.6641 18.599 12.8435 18.4791 12.9946 18.328C13.1458 18.1768 13.2657 17.9974 13.3475 17.7999C13.4293 17.6025 13.4714 17.3908 13.4714 17.1771C13.4714 16.9633 13.4293 16.7517 13.3475 16.5542C13.2657 16.3568 13.1458 16.1773 12.9946 16.0262C12.8435 15.8751 12.6641 15.7552 12.4666 15.6734C12.2691 15.5916 12.0575 15.5495 11.8438 15.5495ZM19.6563 15.5495C19.2246 15.5495 18.8106 15.721 18.5054 16.0262C18.2001 16.3314 18.0286 16.7454 18.0286 17.1771C18.0286 17.6088 18.2001 18.0227 18.5054 18.328C18.8106 18.6332 19.2246 18.8047 19.6563 18.8047C20.0879 18.8047 20.5019 18.6332 20.8071 18.328C21.1124 18.0227 21.2839 17.6088 21.2839 17.1771C21.2839 16.7454 21.1124 16.3314 20.8071 16.0262C20.5019 15.721 20.0879 15.5495 19.6563 15.5495ZM15.75 2.85417C14.0401 2.85417 12.3469 3.19096 10.7671 3.84532C9.18738 4.49968 7.75198 5.45878 6.54288 6.66788C4.101 9.10976 2.72917 12.4217 2.72917 15.875C2.72917 19.3283 4.101 22.6402 6.54288 25.0821C7.75198 26.2912 9.18738 27.2503 10.7671 27.9047C12.3469 28.559 14.0401 28.8958 15.75 28.8958C19.2033 28.8958 22.5152 27.524 24.9571 25.0821C27.399 22.6402 28.7708 19.3283 28.7708 15.875C28.7708 14.1651 28.434 12.4719 27.7797 10.8921C27.1253 9.31238 26.1662 7.87698 24.9571 6.66788C23.748 5.45878 22.3126 4.49968 20.7329 3.84532C19.1531 3.19096 17.4599 2.85417 15.75 2.85417ZM15.75 26.2917C12.9873 26.2917 10.3378 25.1942 8.3843 23.2407C6.4308 21.2872 5.33333 18.6377 5.33333 15.875C5.29427 15.5028 5.29427 15.1275 5.33333 14.7552C8.43483 13.3982 10.8897 10.8919 12.1823 7.76302C13.3827 9.46497 14.9744 10.8536 16.8234 11.8121C18.6724 12.7706 20.7246 13.2709 22.8073 13.2708C23.7969 13.2708 24.7734 13.1536 25.737 12.9323C27.3646 18.4792 24.2135 24.2474 18.6927 25.862C17.7031 26.1484 16.7396 26.2917 15.75 26.2917ZM0.125 2.85417C0.125 2.1635 0.399367 1.50112 0.887743 1.01274C1.37612 0.524367 2.0385 0.25 2.72917 0.25L7.9375 0.25V2.85417H2.72917V8.0625H0.125V2.85417ZM31.375 28.8958C31.375 29.5865 31.1006 30.2489 30.6123 30.7373C30.1239 31.2256 29.4615 31.5 28.7708 31.5H23.5625V28.8958H28.7708V23.6875H31.375V28.8958ZM2.72917 31.5C2.0385 31.5 1.37612 31.2256 0.887743 30.7373C0.399367 30.2489 0.125 29.5865 0.125 28.8958V23.6875H2.72917V28.8958H7.9375V31.5H2.72917ZM28.7708 0.25C29.4615 0.25 30.1239 0.524367 30.6123 1.01274C31.1006 1.50112 31.375 2.1635 31.375 2.85417V8.0625H28.7708V2.85417H23.5625V0.25H28.7708Z" fill="#FFFAFA"/>
</g>
<defs>
<clipPath id="clip0_593_584">
<rect width="31.25" height="31.25" fill="white" transform="translate(0.125 0.25)"/>
</clipPath>
</defs>
</svg>
