<svg width="22" height="18" viewBox="0 0 22 18" fill="none" xmlns="http://www.w3.org/2000/svg">
<path fill-rule="evenodd" clip-rule="evenodd" d="M0.642822 1.5C0.642822 1.10218 0.800857 0.720645 1.08216 0.43934C1.36347 0.158036 1.745 0 2.14282 0H20.1428C20.5406 0 20.9222 0.158036 21.2035 0.43934C21.4848 0.720645 21.6428 1.10218 21.6428 1.5C21.6428 1.89782 21.4848 2.27936 21.2035 2.56066C20.9222 2.84196 20.5406 3 20.1428 3H2.14282C1.745 3 1.36347 2.84196 1.08216 2.56066C0.800857 2.27936 0.642822 1.89782 0.642822 1.5ZM0.642822 9C0.642822 8.60218 0.800857 8.22064 1.08216 7.93934C1.36347 7.65804 1.745 7.5 2.14282 7.5H20.1428C20.5406 7.5 20.9222 7.65804 21.2035 7.93934C21.4848 8.22064 21.6428 8.60218 21.6428 9C21.6428 9.39782 21.4848 9.77936 21.2035 10.0607C20.9222 10.342 20.5406 10.5 20.1428 10.5H2.14282C1.745 10.5 1.36347 10.342 1.08216 10.0607C0.800857 9.77936 0.642822 9.39782 0.642822 9ZM9.64282 16.5C9.64282 16.1022 9.80086 15.7206 10.0822 15.4393C10.3635 15.158 10.745 15 11.1428 15H20.1428C20.5406 15 20.9222 15.158 21.2035 15.4393C21.4848 15.7206 21.6428 16.1022 21.6428 16.5C21.6428 16.8978 21.4848 17.2794 21.2035 17.5607C20.9222 17.842 20.5406 18 20.1428 18H11.1428C10.745 18 10.3635 17.842 10.0822 17.5607C9.80086 17.2794 9.64282 16.8978 9.64282 16.5Z" fill="black"/>
</svg>
