<svg width="32" height="32" viewBox="0 0 32 32" fill="none" xmlns="http://www.w3.org/2000/svg">
<g clip-path="url(#clip0_593_596)">
<path d="M13.4063 21.4688H18.0938V17.5625H22V12.875H18.0938V8.96875H13.4063V12.875H9.5V17.5625H13.4063V21.4688ZM15.75 31.625C12.1302 30.7135 9.14167 28.6365 6.78438 25.3937C4.42708 22.151 3.24896 18.551 3.25 14.5938V5.0625L15.75 0.375L28.25 5.0625V14.5938C28.25 18.5521 27.0714 22.1526 24.7141 25.3953C22.3568 28.638 19.3687 30.7146 15.75 31.625ZM15.75 28.3437C18.4583 27.4844 20.6979 25.7656 22.4687 23.1875C24.2396 20.6094 25.125 17.7448 25.125 14.5938V7.21094L15.75 3.69531L6.375 7.21094V14.5938C6.375 17.7448 7.26042 20.6094 9.03125 23.1875C10.8021 25.7656 13.0417 27.4844 15.75 28.3437Z" fill="#013096"/>
</g>
<defs>
<clipPath id="clip0_593_596">
<rect width="31.25" height="31.25" fill="white" transform="translate(0.125 0.375)"/>
</clipPath>
</defs>
</svg>
