<svg width="19" height="19" viewBox="0 0 19 19" fill="none" xmlns="http://www.w3.org/2000/svg">
<path fill-rule="evenodd" clip-rule="evenodd" d="M7.36641 7.00703H10.268V8.45234C10.6859 7.62109 11.7578 6.87422 13.368 6.87422C16.4547 6.87422 17.1875 8.52891 17.1875 11.5648V17.1875H14.0625V12.2562C14.0625 10.5273 13.6445 9.55234 12.5805 9.55234C11.1047 9.55234 10.4914 10.6031 10.4914 12.2555V17.1875H7.36641V7.00703ZM2.00781 17.0547H5.13281V6.87422H2.00781V17.0547ZM5.58047 3.55469C5.58058 3.81662 5.52864 4.07596 5.42765 4.31765C5.32666 4.55933 5.17863 4.77853 4.99219 4.9625C4.61438 5.33799 4.10298 5.54817 3.57031 5.54688C3.03859 5.54652 2.52837 5.33687 2.15 4.96328C1.96423 4.77868 1.81671 4.55924 1.71589 4.31752C1.61508 4.07581 1.56295 3.81658 1.5625 3.55469C1.5625 3.02578 1.77344 2.51953 2.15078 2.14609C2.52882 1.772 3.03925 1.56227 3.57109 1.5625C4.10391 1.5625 4.61484 1.77266 4.99219 2.14609C5.36875 2.51953 5.58047 3.02578 5.58047 3.55469Z" fill="#013096"/>
</svg>
