<svg width="17" height="17" viewBox="0 0 17 17" fill="none" xmlns="http://www.w3.org/2000/svg">
<path fill-rule="evenodd" clip-rule="evenodd" d="M6.72383 6.00703H9.62539V7.45234C10.0434 6.62109 11.1152 5.87422 12.7254 5.87422C15.8121 5.87422 16.5449 7.52891 16.5449 10.5648V16.1875H13.4199V11.2562C13.4199 9.52734 13.002 8.55234 11.9379 8.55234C10.4621 8.55234 9.84883 9.60313 9.84883 11.2555V16.1875H6.72383V6.00703ZM1.36523 16.0547H4.49023V5.87422H1.36523V16.0547ZM4.93789 2.55469C4.93801 2.81662 4.88606 3.07596 4.78507 3.31765C4.68408 3.55933 4.53606 3.77853 4.34961 3.9625C3.9718 4.33799 3.4604 4.54817 2.92773 4.54688C2.39601 4.54652 1.88579 4.33687 1.50742 3.96328C1.32165 3.77868 1.17413 3.55924 1.07332 3.31752C0.972501 3.07581 0.920374 2.81658 0.919922 2.55469C0.919922 2.02578 1.13086 1.51953 1.5082 1.14609C1.88624 0.771999 2.39667 0.562266 2.92852 0.5625C3.46133 0.5625 3.97227 0.772656 4.34961 1.14609C4.72617 1.51953 4.93789 2.02578 4.93789 2.55469Z" fill="#013096"/>
</svg>
