<svg width="98" height="16" viewBox="0 0 98 16" fill="none" xmlns="http://www.w3.org/2000/svg">
<g clip-path="url(#clip0_653_709)">
<path d="M1.81 7.03367H0V5.24357H1.81V3.79159C1.81 3.00925 1.93597 2.39929 2.18791 1.96171C2.45311 1.51087 2.85091 1.19925 3.38131 1.02687C3.92497 0.841233 4.64764 0.748413 5.54933 0.748413C6.00017 0.748413 6.57035 0.781563 7.25987 0.847863V2.63797C6.68969 2.57167 6.272 2.53852 6.0068 2.53852C5.51618 2.53852 5.17805 2.61808 4.99241 2.7772C4.80677 2.92306 4.71395 3.20815 4.71395 3.63247V5.24357H7.16042V7.03367H4.71395V14.8704H1.81V7.03367ZM8.19471 5.24357H11.0987V14.8704H8.19471V5.24357Z" fill="#013096"/>
<path d="M13.7983 0.947327H16.7023V14.8704H13.7983V0.947327Z" fill="#013096"/>
<path d="M22.0572 15.0693C21.1555 15.0693 20.4792 14.9898 20.0284 14.8307C19.5908 14.6583 19.2792 14.3599 19.0935 13.9356C18.9212 13.498 18.835 12.8483 18.835 11.9864C18.835 11.2173 18.9278 10.614 19.1134 10.1764C19.3123 9.73879 19.6239 9.42718 20.0483 9.24154C20.4858 9.04264 21.0825 8.94319 21.8384 8.94319H25.1003V8.28682C25.1003 7.87576 25.0407 7.57078 24.9213 7.37188C24.8152 7.17298 24.6097 7.03375 24.3047 6.95418C24.013 6.87462 23.5688 6.83484 22.9721 6.83484C22.15 6.83484 21.0229 6.9144 19.5908 7.07353V5.24364C20.6383 5.11104 21.8649 5.04474 23.2704 5.04474C24.5036 5.04474 25.4517 5.13756 26.1147 5.3232C26.791 5.50884 27.275 5.82708 27.5667 6.27792C27.8584 6.72876 28.0043 7.38514 28.0043 8.24704V14.8704H25.16V13.9953C24.9346 14.3798 24.6296 14.6516 24.2451 14.8108C23.8605 14.9831 23.1312 15.0693 22.0572 15.0693ZM23.1909 13.2593C23.7743 13.2593 24.192 13.2394 24.444 13.1997C24.6296 13.1731 24.7556 13.1334 24.8219 13.0803C24.9014 13.0273 24.9677 12.9411 25.0208 12.8218C25.0738 12.7289 25.1003 12.5897 25.1003 12.4041V10.5344H23.1113C22.6605 10.5344 22.3422 10.5675 22.1566 10.6338C21.971 10.6869 21.845 10.8062 21.7787 10.9919C21.7124 11.1642 21.6792 11.4759 21.6792 11.9267C21.6792 12.3643 21.7124 12.6693 21.7787 12.8416C21.845 13.014 21.971 13.1267 22.1566 13.1798C22.3555 13.2328 22.7003 13.2593 23.1909 13.2593Z" fill="#013096"/>
<path d="M30.5598 5.24364H33.4636V6.41715C33.6492 5.50221 34.5973 5.04474 36.3078 5.04474C37.2095 5.04474 37.8926 5.16408 38.3567 5.40276C38.8208 5.62818 39.1324 5.9862 39.2916 6.47682C39.4507 5.97294 39.7557 5.60829 40.2065 5.38287C40.6706 5.15745 41.3667 5.04474 42.295 5.04474C43.1303 5.04474 43.7732 5.14419 44.2243 5.34309C44.6751 5.52873 44.9867 5.82045 45.1591 6.21825C45.3448 6.61605 45.4376 7.14646 45.4376 7.80946V14.8704H42.5334V8.20726C42.5334 7.78294 42.5071 7.48459 42.4541 7.31221C42.401 7.12657 42.2815 7.0006 42.0958 6.9343C41.9235 6.868 41.6185 6.83484 41.1809 6.83484C40.6372 6.83484 40.2461 6.868 40.0074 6.9343C39.782 7.0006 39.6297 7.12657 39.5501 7.31221C39.4838 7.48459 39.4507 7.78294 39.4507 8.20726V14.8704H36.5467V8.20726C36.5467 7.78294 36.52 7.48459 36.467 7.31221C36.4139 7.12657 36.2948 7.0006 36.1091 6.9343C35.9368 6.868 35.6318 6.83484 35.1942 6.83484C34.6505 6.83484 34.2594 6.868 34.0207 6.9343C33.7953 7.0006 33.6426 7.12657 33.563 7.31221C33.4967 7.48459 33.4636 7.78294 33.4636 8.20726V14.8704H30.5598V5.24364Z" fill="#013096"/>
<path d="M52.8161 15.0693C49.4083 15.0693 47.7043 14.0284 47.7043 11.9466V8.48572C47.7043 7.27906 48.0889 6.40389 48.858 5.86023C49.6403 5.31657 50.8403 5.04474 52.4581 5.04474C53.983 5.04474 55.0968 5.30994 55.7996 5.84034C56.5156 6.35748 56.8737 7.23928 56.8737 8.48572V10.8327H50.6282V11.7079C50.6282 12.2648 50.8271 12.6626 51.2249 12.9013C51.6227 13.14 52.3387 13.2593 53.373 13.2593C54.3277 13.2593 55.4018 13.1201 56.5952 12.8416V14.6914C55.4151 14.9434 54.1554 15.0693 52.8161 15.0693ZM54.1089 9.18187V7.78957C54.1089 7.47133 53.9763 7.23265 53.7111 7.07353C53.4592 6.9144 53.0283 6.83484 52.4183 6.83484C51.7155 6.83484 51.2448 6.9144 51.0061 7.07353C50.7542 7.24591 50.6282 7.48459 50.6282 7.78957V9.18187H54.1089Z" fill="#013096"/>
<path d="M59.093 5.24364H61.9572V6.41715C62.1826 5.50221 63.2103 5.04474 65.0401 5.04474C66.2733 5.04474 67.1352 5.27016 67.6259 5.721C68.1297 6.15858 68.3817 6.85474 68.3817 7.80946V14.8704H65.4777V8.18737C65.4777 7.81609 65.4379 7.53763 65.3584 7.35199C65.2921 7.16635 65.1462 7.03375 64.9208 6.95419C64.7086 6.87462 64.3771 6.83484 63.9263 6.83484C63.3561 6.83484 62.9384 6.87462 62.6732 6.95419C62.408 7.02049 62.229 7.14646 62.1362 7.3321C62.0434 7.51774 61.997 7.80283 61.997 8.18737V14.8704H59.093V5.24364Z" fill="#013096"/>
<path d="M75.7356 15.0694C75.245 15.0694 74.8339 15.0495 74.5024 15.0097C74.1709 14.97 73.8394 14.8904 73.5079 14.7711C73.1366 14.6517 72.8317 14.486 72.593 14.2738C72.3675 14.0616 72.1819 13.7699 72.0361 13.3986C71.8769 13.0141 71.7974 12.5699 71.7974 12.066V7.03382H69.8481V5.24372H71.7974V2.45911H74.7013V5.24372H77.3467V7.03382H74.7013V11.5688C74.7013 12.0329 74.7411 12.3842 74.8207 12.6229C74.9002 12.8483 75.0527 13.0141 75.2781 13.1202C75.5036 13.213 75.8483 13.2594 76.3124 13.2594C76.4981 13.2594 76.8428 13.2263 77.3467 13.16V14.97C76.7235 15.0363 76.1864 15.0694 75.7356 15.0694Z" fill="#013096"/>
<path d="M86.3308 15.0693C85.4292 15.0693 84.7529 14.9898 84.302 14.8307C83.8645 14.6583 83.5529 14.3599 83.3672 13.9356C83.1948 13.498 83.1086 12.8483 83.1086 11.9864C83.1086 11.2173 83.2015 10.614 83.3871 10.1764C83.586 9.73879 83.8976 9.42718 84.3219 9.24154C84.7595 9.04264 85.3562 8.94319 86.112 8.94319H89.374V8.28682C89.374 7.87576 89.3143 7.57078 89.195 7.37188C89.0889 7.17298 88.8834 7.03375 88.5784 6.95418C88.2867 6.87462 87.8425 6.83484 87.2458 6.83484C86.4237 6.83484 85.2966 6.9144 83.8645 7.07353V5.24364C84.912 5.11104 86.1386 5.04474 87.5441 5.04474C88.7773 5.04474 89.7254 5.13756 90.3884 5.3232C91.0647 5.50884 91.5487 5.82708 91.8404 6.27792C92.1321 6.72876 92.278 7.38514 92.278 8.24704V14.8704H89.4337V13.9953C89.2083 14.3798 88.9033 14.6516 88.5187 14.8108C88.1342 14.9831 87.4049 15.0693 86.3308 15.0693ZM87.4646 13.2593C88.048 13.2593 88.4657 13.2394 88.7176 13.1997C88.9033 13.1731 89.0293 13.1334 89.0956 13.0803C89.1751 13.0273 89.2414 12.9411 89.2945 12.8218C89.3475 12.7289 89.374 12.5897 89.374 12.4041V10.5344H87.385C86.9342 10.5344 86.6159 10.5675 86.4303 10.6338C86.2446 10.6869 86.1187 10.8062 86.0524 10.9919C85.9861 11.1642 85.9529 11.4759 85.9529 11.9267C85.9529 12.3643 85.9861 12.6693 86.0524 12.8416C86.1187 13.014 86.2446 13.1267 86.4303 13.1798C86.6292 13.2328 86.9739 13.2593 87.4646 13.2593Z" fill="#013096"/>
<path d="M94.9124 1.76285H97.8163V4.10988H94.9124V1.76285ZM94.9124 5.24361H97.8163V14.8704H94.9124V5.24361Z" fill="#013096"/>
</g>
<defs>
<clipPath id="clip0_653_709">
<rect width="98" height="14.5032" fill="white" transform="translate(0 0.748413)"/>
</clipPath>
</defs>
</svg>
