<svg width="31" height="32" viewBox="0 0 31 32" fill="none" xmlns="http://www.w3.org/2000/svg">
<path d="M23.3195 2.21736C23.3196 1.69573 23.1125 1.19541 22.7438 0.826457C22.3751 0.457506 21.8749 0.250148 21.3532 0.25C21.0949 0.249927 20.8392 0.300727 20.6005 0.399501C20.3619 0.498274 20.145 0.643087 19.9623 0.82567C19.5934 1.19441 19.386 1.69462 19.3859 2.21625C19.3859 3.30211 21.3527 6.96842 21.3527 6.96842C21.3527 6.96842 23.3195 3.30322 23.3195 2.21736ZM20.4127 2.21736C20.4083 2.09128 20.4293 1.96559 20.4745 1.8478C20.5197 1.73001 20.5881 1.62252 20.6757 1.53174C20.7633 1.44095 20.8683 1.36874 20.9844 1.31939C21.1005 1.27004 21.2254 1.24457 21.3515 1.24449C21.4777 1.24442 21.6026 1.26974 21.7187 1.31895C21.8349 1.36816 21.94 1.44026 22.0277 1.53094C22.1154 1.62162 22.184 1.72902 22.2293 1.84676C22.2746 1.9645 22.2958 2.09016 22.2915 2.21625C22.2833 2.4598 22.1808 2.69064 22.0056 2.86007C21.8305 3.0295 21.5963 3.12428 21.3527 3.12442C21.109 3.12457 20.8747 3.03006 20.6994 2.86084C20.524 2.69162 20.4212 2.4609 20.4127 2.21736ZM25.6505 18.6556C25.0268 18.6556 24.4287 18.708 23.8797 18.7926L9.85701 13.6228C10.0797 13.4223 10.2045 13.1996 10.2045 12.9657C10.2016 12.8424 10.1679 12.7218 10.1065 12.6149L19.4727 10.1224C19.985 10.275 20.6121 10.3675 21.3059 10.3675C22.9987 10.3675 24.3686 9.82842 24.3686 9.16242C24.3686 8.4942 22.9987 7.95628 21.3059 7.95628C19.6131 7.95628 18.2432 8.49643 18.2432 9.16242C18.2432 9.24038 18.2655 9.315 18.3033 9.38739L8.51611 11.6449C7.69551 11.4134 6.84616 11.2998 5.99357 11.3074C3.66926 11.3074 1.78376 12.0503 1.78376 12.9668C1.78376 13.8834 3.66926 14.6263 5.99357 14.6263C6.63283 14.6263 7.22978 14.565 7.77327 14.4648L21.1266 19.8841C20.915 20.0979 20.7858 20.3295 20.7858 20.5779C20.7858 20.7895 20.8927 20.9833 21.0486 21.1715L7.17855 26.3625C7.00258 26.3569 6.82662 26.3513 6.64731 26.3513C3.03891 26.3513 0.109863 27.5051 0.109863 28.924C0.109863 30.3462 3.03891 31.5 6.64731 31.5C10.2557 31.5 13.1848 30.3484 13.1848 28.9251C13.1848 28.6801 13.0923 28.444 12.9286 28.2201L24.3619 22.4133C24.774 22.4578 25.2005 22.4857 25.6482 22.4857C28.3356 22.4857 30.5151 21.6281 30.5151 20.5668C30.5151 19.5154 28.3356 18.6556 25.6482 18.6556H25.6505Z" fill="#013096"/>
</svg>
