<svg width="33" height="34" viewBox="0 0 33 34" fill="none" xmlns="http://www.w3.org/2000/svg">
<path d="M24.8745 2.6202C24.8747 2.0704 24.6564 1.54305 24.2677 1.15417C23.8791 0.765285 23.3519 0.546726 22.8021 0.54657C22.5298 0.546493 22.2602 0.600037 22.0087 0.704147C21.7571 0.808256 21.5286 0.960891 21.336 1.15334C20.9471 1.542 20.7286 2.06922 20.7284 2.61903C20.7284 3.76355 22.8015 7.62792 22.8015 7.62792C22.8015 7.62792 24.8745 3.76472 24.8745 2.6202ZM21.8107 2.6202C21.8061 2.48731 21.8282 2.35484 21.8758 2.23068C21.9235 2.10653 21.9956 1.99323 22.0879 1.89755C22.1803 1.80186 22.2909 1.72574 22.4133 1.67372C22.5357 1.62171 22.6673 1.59486 22.8003 1.59478C22.9332 1.5947 23.0649 1.62139 23.1873 1.67326C23.3098 1.72514 23.4205 1.80112 23.513 1.8967C23.6054 1.99228 23.6777 2.10549 23.7255 2.22959C23.7732 2.35369 23.7955 2.48613 23.791 2.61903C23.7823 2.87574 23.6743 3.11905 23.4897 3.29763C23.3051 3.47621 23.0583 3.57612 22.8014 3.57627C22.5446 3.57642 22.2977 3.47681 22.1129 3.29845C21.928 3.12008 21.8197 2.87691 21.8107 2.6202ZM27.3314 19.9465C26.6741 19.9465 26.0437 20.0016 25.465 20.0909L10.6848 14.6418C10.9196 14.4305 11.0511 14.1957 11.0511 13.9492C11.048 13.8192 11.0125 13.6921 10.9478 13.5794L20.82 10.9523C21.36 11.1131 22.0208 11.2106 22.7522 11.2106C24.5364 11.2106 25.9803 10.6424 25.9803 9.94044C25.9803 9.23612 24.5364 8.66914 22.7522 8.66914C20.9679 8.66914 19.524 9.23846 19.524 9.94044C19.524 10.0226 19.5475 10.1013 19.5874 10.1776L9.27148 12.557C8.40655 12.313 7.51132 12.1932 6.61267 12.2013C4.16281 12.2013 2.17545 12.9843 2.17545 13.9504C2.17545 14.9165 4.16281 15.6994 6.61267 15.6994C7.28647 15.6994 7.91566 15.6349 8.48851 15.5292L22.5632 21.2412C22.3401 21.4666 22.204 21.7108 22.204 21.9726C22.204 22.1956 22.3167 22.3999 22.481 22.5982L7.86166 28.0696C7.67619 28.0638 7.49072 28.0579 7.30173 28.0579C3.4984 28.0579 0.411133 29.274 0.411133 30.7695C0.411133 32.2686 3.4984 33.4847 7.30173 33.4847C11.1051 33.4847 14.1923 32.2709 14.1923 30.7707C14.1923 30.5124 14.0949 30.2636 13.9223 30.0276L25.9733 23.9071C26.4076 23.9541 26.8572 23.9834 27.3291 23.9834C30.1616 23.9834 32.4589 23.0795 32.4589 21.9608C32.4589 20.8527 30.1616 19.9465 27.3291 19.9465H27.3314Z" fill="#FFFAFA"/>
</svg>
