<svg width="52" height="54" viewBox="0 0 52 54" fill="none" xmlns="http://www.w3.org/2000/svg">
<path d="M39.6121 3.61331C39.6124 2.72654 39.2603 1.87599 38.6335 1.24878C38.0066 0.621558 37.1563 0.26905 36.2695 0.268799C35.8304 0.268675 35.3956 0.355035 34.9899 0.52295C34.5842 0.690865 34.2155 0.937046 33.9049 1.24744C33.2777 1.8743 32.9252 2.72465 32.925 3.61142C32.925 5.45738 36.2685 11.6901 36.2685 11.6901C36.2685 11.6901 39.6121 5.45928 39.6121 3.61331ZM34.6706 3.61331C34.6631 3.39897 34.6988 3.18531 34.7756 2.98506C34.8524 2.78482 34.9688 2.60208 35.1177 2.44775C35.2666 2.29342 35.4451 2.17065 35.6425 2.08676C35.8399 2.00286 36.0521 1.95956 36.2666 1.95943C36.4811 1.95931 36.6934 2.00235 36.8909 2.08602C37.0884 2.16968 37.267 2.29224 37.4161 2.44639C37.5652 2.60054 37.6818 2.78314 37.7588 2.98329C37.8359 3.18345 37.8718 3.39707 37.8646 3.61142C37.8506 4.02546 37.6763 4.41788 37.3785 4.70591C37.0808 4.99394 36.6828 5.15507 36.2685 5.15532C35.8542 5.15557 35.456 4.99491 35.1579 4.70723C34.8598 4.41955 34.6851 4.02734 34.6706 3.61331ZM43.5748 31.5584C42.5145 31.5584 41.4978 31.6474 40.5644 31.7913L16.7259 23.0026C17.1046 22.6618 17.3166 22.2831 17.3166 21.8855C17.3118 21.6759 17.2545 21.4709 17.15 21.2891L33.0726 17.0519C33.9436 17.3113 35.0095 17.4685 36.189 17.4685C39.0668 17.4685 41.3956 16.5521 41.3956 15.4199C41.3956 14.2839 39.0668 13.3695 36.189 13.3695C33.3112 13.3695 30.9824 14.2877 30.9824 15.4199C30.9824 15.5524 31.0203 15.6793 31.0847 15.8024L14.4464 19.6401C13.0514 19.2465 11.6075 19.0534 10.1581 19.0664C6.20674 19.0664 3.00139 20.3292 3.00139 21.8874C3.00139 23.4456 6.20674 24.7084 10.1581 24.7084C11.2448 24.7084 12.2596 24.6043 13.1835 24.4339L35.8842 33.6467C35.5245 34.0102 35.3048 34.404 35.3048 34.8262C35.3048 35.186 35.4866 35.5154 35.7517 35.8354L12.1725 44.66C11.8734 44.6506 11.5742 44.6411 11.2694 44.6411C5.13514 44.6411 0.155762 46.6025 0.155762 49.0146C0.155762 51.4323 5.13514 53.3938 11.2694 53.3938C17.4037 53.3938 22.3831 51.4361 22.3831 49.0165C22.3831 48.6 22.2259 48.1986 21.9476 47.818L41.3842 37.9464C42.0848 38.0221 42.8099 38.0694 43.571 38.0694C48.1395 38.0694 51.8447 36.6116 51.8447 34.8073C51.8447 33.02 48.1395 31.5584 43.571 31.5584H43.5748Z" fill="#FFFAFA"/>
</svg>
