<svg width="17" height="21" viewBox="0 0 17 21" fill="none" xmlns="http://www.w3.org/2000/svg">
<path d="M2.09864 6.16765C1.80144 4.21019 3.18163 2.45189 5.29003 1.8077C5.66419 1.6933 6.06788 1.72587 6.41886 1.89875C6.76984 2.07164 7.04169 2.37184 7.17904 2.73819L7.8559 4.54317C7.96487 4.83355 7.98457 5.14986 7.91248 5.45151C7.8404 5.75316 7.67981 6.02638 7.45134 6.23612L5.43785 8.08C5.33861 8.17108 5.26465 8.28632 5.2232 8.41449C5.18175 8.54266 5.17422 8.67938 5.20134 8.81133L5.22001 8.89224L5.26825 9.09452C5.51865 10.0774 5.90019 11.0221 6.40258 11.9031C6.94985 12.8394 7.62901 13.692 8.41918 14.4348L8.48142 14.4908C8.58194 14.58 8.70386 14.6417 8.8353 14.6698C8.96674 14.6978 9.10321 14.6914 9.23142 14.6511L11.8346 13.831C12.1305 13.7381 12.4473 13.7358 12.7445 13.8242C13.0418 13.9127 13.3058 14.0879 13.5027 14.3274L14.7351 15.8227C15.2485 16.4451 15.1863 17.3601 14.5966 17.9094C12.983 19.414 10.7641 19.7221 9.22053 18.482C7.32846 16.9558 5.73343 15.0944 4.51514 12.9908C3.28696 10.8888 2.46814 8.57392 2.09864 6.16765ZM6.8336 8.91402L8.50165 7.3829C8.95887 6.96361 9.28033 6.41724 9.42478 5.81393C9.56923 5.21062 9.53008 4.57791 9.31234 3.99701L8.63702 2.19203C8.36059 1.45487 7.81348 0.85084 7.10717 0.503037C6.40087 0.155234 5.58853 0.0898273 4.83568 0.320145C2.2169 1.12149 0.114721 3.46952 0.559742 6.40261C0.870945 8.45033 1.58827 11.0551 3.17074 13.775C4.48512 16.0432 6.20568 18.0502 8.24646 19.6957C10.5618 21.5551 13.6521 20.9202 15.6593 19.0499C16.2337 18.5151 16.5823 17.7814 16.6341 16.9983C16.6858 16.2152 16.4368 15.4419 15.9379 14.8362L14.7055 13.3393C14.3113 12.8608 13.7831 12.511 13.1887 12.3347C12.5943 12.1583 11.9608 12.1636 11.3694 12.3497L9.20808 13.0297C8.65005 12.4543 8.16125 11.8156 7.75165 11.1267C7.35599 10.4301 7.04765 9.68752 6.8336 8.91558V8.91402Z" fill="#080808"/>
</svg>
