<svg width="17" height="20" viewBox="0 0 17 20" fill="none" xmlns="http://www.w3.org/2000/svg">
<path d="M2.22509 5.80095C1.93693 3.90299 3.27515 2.19815 5.31946 1.57354C5.68223 1.46263 6.07365 1.4942 6.41396 1.66183C6.75427 1.82946 7.01786 2.12054 7.15103 2.47575L7.80732 4.22586C7.91297 4.5074 7.93208 4.8141 7.86218 5.10658C7.79229 5.39906 7.63658 5.66398 7.41506 5.86734L5.46278 7.65516C5.36655 7.74347 5.29485 7.85521 5.25466 7.97948C5.21447 8.10375 5.20716 8.23632 5.23346 8.36425L5.25156 8.44271L5.29833 8.63884C5.54113 9.59181 5.91106 10.5078 6.39819 11.3621C6.92882 12.2699 7.58733 13.0965 8.35348 13.8167L8.41382 13.871C8.51129 13.9576 8.6295 14.0173 8.75694 14.0446C8.88439 14.0718 9.01671 14.0656 9.14102 14.0264L11.6651 13.2314C11.952 13.1413 12.2592 13.139 12.5473 13.2247C12.8355 13.3105 13.0915 13.4804 13.2824 13.7126L14.4773 15.1625C14.9752 15.766 14.9149 16.6531 14.3431 17.1857C12.7785 18.6446 10.6271 18.9433 9.13046 17.7409C7.29591 16.2611 5.74937 14.4563 4.56812 12.4167C3.37728 10.3786 2.58335 8.13407 2.22509 5.80095ZM6.8161 8.46383L8.43344 6.97926C8.87675 6.57271 9.18845 6.04295 9.3285 5.45798C9.46856 4.87302 9.4306 4.25954 9.21948 3.6963L8.56469 1.9462C8.29666 1.23144 7.76618 0.645778 7.08135 0.308548C6.39652 -0.0286811 5.60888 -0.0920994 4.87891 0.131216C2.33975 0.908202 0.301483 3.18485 0.732974 6.02877C1.03472 8.01423 1.73023 10.5398 3.26459 13.177C4.53902 15.3763 6.20727 17.3222 8.18601 18.9177C10.431 20.7206 13.4273 20.105 15.3735 18.2916C15.9304 17.7731 16.2684 17.0616 16.3186 16.3023C16.3688 15.5431 16.1274 14.7933 15.6436 14.206L14.4487 12.7546C14.0664 12.2906 13.5543 11.9514 12.978 11.7805C12.4017 11.6095 11.7874 11.6146 11.214 11.7951L9.11839 12.4544C8.57732 11.8965 8.10338 11.2772 7.70624 10.6092C7.32261 9.93386 7.02364 9.21381 6.8161 8.46534V8.46383Z" fill="#FFFAFA"/>
</svg>
