<svg width="32" height="32" viewBox="0 0 32 32" fill="none" xmlns="http://www.w3.org/2000/svg">
<g clip-path="url(#clip0_593_611)">
<path d="M2.729 21.3334V17.6875C2.729 16.9497 2.91911 16.2717 3.29932 15.6537C3.67952 15.0356 4.18386 14.5634 4.81234 14.237C6.15782 13.5643 7.52501 13.0595 8.9139 12.7227C10.3028 12.3859 11.7134 12.2179 13.1457 12.2188C14.1222 12.2188 15.0879 12.2947 16.0428 12.4466C16.9977 12.5986 17.9525 12.8373 18.9074 13.1628C18.5385 13.4666 18.2021 13.7978 17.8983 14.1563C17.5945 14.5148 17.3232 14.8998 17.0845 15.3112C16.4334 15.1376 15.7824 15.0126 15.1313 14.9362C14.4803 14.8598 13.8184 14.8221 13.1457 14.8229C11.9304 14.8229 10.726 14.9697 9.53239 15.2631C8.33881 15.5565 7.15609 15.9957 5.98421 16.5808C5.7889 16.6893 5.63135 16.8412 5.51156 17.0365C5.39176 17.2318 5.3323 17.4488 5.33317 17.6875V18.7292H15.8475C15.8041 19.1632 15.7824 19.5973 15.7824 20.0313C15.7824 20.4653 15.8041 20.8993 15.8475 21.3334H2.729ZM13.1457 10.9167C11.7134 10.9167 10.4873 10.4067 9.46729 9.38675C8.44732 8.36679 7.93734 7.14066 7.93734 5.70837C7.93734 4.27607 8.44732 3.04995 9.46729 2.02998C10.4873 1.01002 11.7134 0.500033 13.1457 0.500033C14.578 0.500033 15.8041 1.01002 16.8241 2.02998C17.844 3.04995 18.354 4.27607 18.354 5.70837C18.354 7.14066 17.844 8.36679 16.8241 9.38675C15.8041 10.4067 14.578 10.9167 13.1457 10.9167ZM13.1457 8.31253C13.8618 8.31253 14.4751 8.05732 14.9855 7.54691C15.4959 7.03649 15.7507 6.42364 15.7498 5.70837C15.7498 4.99222 15.4946 4.37894 14.9842 3.86852C14.4738 3.35811 13.8609 3.10333 13.1457 3.1042C12.4295 3.1042 11.8162 3.35941 11.3058 3.86983C10.7954 4.38024 10.5406 4.99309 10.5415 5.70837C10.5415 6.42451 10.7967 7.03779 11.3071 7.54821C11.8175 8.05863 12.4304 8.3134 13.1457 8.31253ZM26.1665 5.70837C26.1665 7.14066 25.6565 8.36679 24.6366 9.38675C23.6166 10.4067 22.3905 10.9167 20.9582 10.9167C20.7195 10.9167 20.4156 10.8894 20.0467 10.8347C19.6778 10.78 19.374 10.7205 19.1353 10.6563C19.7212 9.96184 20.1717 9.19144 20.4868 8.34509C20.8019 7.49873 20.959 6.61982 20.9582 5.70837C20.9582 4.79691 20.8006 3.918 20.4855 3.07165C20.1704 2.22529 19.7203 1.45489 19.1353 0.76045C19.4391 0.651943 19.7429 0.581197 20.0467 0.54821C20.3505 0.515224 20.6544 0.499165 20.9582 0.500033C22.3905 0.500033 23.6166 1.01002 24.6366 2.02998C25.6565 3.04995 26.1665 4.27607 26.1665 5.70837ZM24.8644 26.5417C23.0632 26.5417 21.5276 25.9067 20.2576 24.6368C18.9877 23.3668 18.3531 21.8316 18.354 20.0313C18.354 18.2084 18.989 16.6676 20.259 15.4089C21.5289 14.1502 23.0641 13.5209 24.8644 13.5209C26.6873 13.5209 28.2281 14.1502 29.4868 15.4089C30.7455 16.6676 31.3748 18.2084 31.3748 20.0313C31.3748 21.8325 30.7455 23.3681 29.4868 24.6381C28.2281 25.908 26.6873 26.5426 24.8644 26.5417ZM23.953 22.961L28.5428 18.3386L27.6313 17.4271L23.953 21.1055L22.0975 19.25L21.186 20.194L23.953 22.961Z" fill="#013096"/>
</g>
<defs>
<clipPath id="clip0_593_611">
<rect width="31.25" height="31.25" fill="white" transform="translate(0.125 0.5)"/>
</clipPath>
</defs>
</svg>
