<svg width="54" height="54" viewBox="0 0 54 54" fill="none" xmlns="http://www.w3.org/2000/svg">
<path d="M12.2638 29.6024H2.60471C1.96428 29.6024 1.35007 29.8568 0.897212 30.3097C0.444354 30.7625 0.189941 31.3767 0.189941 32.0172V51.3354C0.189941 51.9758 0.444354 52.59 0.897212 53.0429C1.35007 53.4957 1.96428 53.7501 2.60471 53.7501H12.2638C12.9042 53.7501 13.5184 53.4957 13.9713 53.0429C14.4242 52.59 14.6786 51.9758 14.6786 51.3354V32.0172C14.6786 31.3767 14.4242 30.7625 13.9713 30.3097C13.5184 29.8568 12.9042 29.6024 12.2638 29.6024ZM9.84903 48.9206H5.01949V34.4319H9.84903V48.9206ZM50.9002 19.9433H41.2411C40.6006 19.9433 39.9864 20.1977 39.5336 20.6506C39.0807 21.1034 38.8263 21.7176 38.8263 22.3581V51.3354C38.8263 51.9758 39.0807 52.59 39.5336 53.0429C39.9864 53.4957 40.6006 53.7501 41.2411 53.7501H50.9002C51.5406 53.7501 52.1548 53.4957 52.6077 53.0429C53.0605 52.59 53.3149 51.9758 53.3149 51.3354V22.3581C53.3149 21.7176 53.0605 21.1034 52.6077 20.6506C52.1548 20.1977 51.5406 19.9433 50.9002 19.9433ZM48.4854 48.9206H43.6559V24.7729H48.4854V48.9206ZM31.582 0.625122H21.9229C21.2825 0.625122 20.6683 0.879535 20.2154 1.33239C19.7625 1.78525 19.5081 2.39946 19.5081 3.03989V51.3354C19.5081 51.9758 19.7625 52.59 20.2154 53.0429C20.6683 53.4957 21.2825 53.7501 21.9229 53.7501H31.582C32.2224 53.7501 32.8366 53.4957 33.2895 53.0429C33.7423 52.59 33.9968 51.9758 33.9968 51.3354V3.03989C33.9968 2.39946 33.7423 1.78525 33.2895 1.33239C32.8366 0.879535 32.2224 0.625122 31.582 0.625122ZM29.1672 48.9206H24.3377V5.45467H29.1672V48.9206Z" fill="#FFFAFA"/>
</svg>
