<svg width="34" height="34" viewBox="0 0 34 34" fill="none" xmlns="http://www.w3.org/2000/svg">
<path d="M8.06626 18.2318H2.07751C1.68043 18.2318 1.29962 18.3901 1.01884 18.6719C0.738061 18.9536 0.580322 19.3358 0.580322 19.7342V31.7533C0.580322 32.1518 0.738061 32.5339 1.01884 32.8157C1.29962 33.0974 1.68043 33.2557 2.07751 33.2557H8.06626C8.46334 33.2557 8.84416 33.0974 9.12493 32.8157C9.40571 32.5339 9.56345 32.1518 9.56345 31.7533V19.7342C9.56345 19.3358 9.40571 18.9536 9.12493 18.6719C8.84416 18.3901 8.46334 18.2318 8.06626 18.2318ZM6.56907 30.2509H3.5747V21.2366H6.56907V30.2509ZM32.0213 12.2223H26.0325C25.6354 12.2223 25.2546 12.3806 24.9738 12.6623C24.6931 12.9441 24.5353 13.3262 24.5353 13.7247V31.7533C24.5353 32.1518 24.6931 32.5339 24.9738 32.8157C25.2546 33.0974 25.6354 33.2557 26.0325 33.2557H32.0213C32.4183 33.2557 32.7992 33.0974 33.0799 32.8157C33.3607 32.5339 33.5185 32.1518 33.5185 31.7533V13.7247C33.5185 13.3262 33.3607 12.9441 33.0799 12.6623C32.7992 12.3806 32.4183 12.2223 32.0213 12.2223ZM30.5241 30.2509H27.5297V15.2271H30.5241V30.2509ZM20.0438 0.203186H14.055C13.6579 0.203186 13.2771 0.361473 12.9963 0.643225C12.7156 0.924977 12.5578 1.30712 12.5578 1.70557V31.7533C12.5578 32.1518 12.7156 32.5339 12.9963 32.8157C13.2771 33.0974 13.6579 33.2557 14.055 33.2557H20.0438C20.4408 33.2557 20.8217 33.0974 21.1024 32.8157C21.3832 32.5339 21.541 32.1518 21.541 31.7533V1.70557C21.541 1.30712 21.3832 0.924977 21.1024 0.643225C20.8217 0.361473 20.4408 0.203186 20.0438 0.203186ZM18.5466 30.2509H15.5522V3.20796H18.5466V30.2509Z" fill="#FFFAFA"/>
</svg>
