<svg width="52" height="54" viewBox="0 0 52 54" fill="none" xmlns="http://www.w3.org/2000/svg">
<path d="M31.7527 4.93284C31.8332 4.83105 31.933 4.74619 32.0464 4.68314C32.1598 4.62009 32.2845 4.5801 32.4135 4.56547C32.5424 4.55084 32.673 4.56186 32.7976 4.5979C32.9223 4.63393 33.0385 4.69427 33.1398 4.77544L35.2647 6.47928L27.4951 16.3679H32.5003L38.3398 8.93864L43.2664 12.8854C43.3697 12.9681 43.4552 13.0707 43.5178 13.1871C43.5805 13.3036 43.619 13.4315 43.6312 13.5632C43.6433 13.6948 43.6287 13.8276 43.5884 13.9536C43.548 14.0795 43.4827 14.196 43.3963 14.2961L41.6098 16.3679H46.7528C47.4302 15.3443 47.7004 14.1044 47.5104 12.8918C47.3204 11.6792 46.6838 10.5815 45.7258 9.81417L35.5991 1.70419C35.0933 1.29916 34.5123 0.998084 33.8897 0.818267C33.2671 0.638451 32.6151 0.583437 31.9712 0.656386C31.3273 0.729334 30.7041 0.928808 30.1375 1.24335C29.5709 1.55788 29.0721 1.98128 28.6696 2.48922L17.6773 16.3679H22.6964L31.7527 4.93284ZM35.7605 34.0753C35.2387 34.0753 34.7382 34.2825 34.3692 34.6515C34.0003 35.0205 33.793 35.5209 33.793 36.0427C33.793 36.5646 34.0003 37.065 34.3692 37.434C34.7382 37.8029 35.2387 38.0102 35.7605 38.0102H41.6629C42.1847 38.0102 42.6852 37.8029 43.0541 37.434C43.4231 37.065 43.6304 36.5646 43.6304 36.0427C43.6304 35.5209 43.4231 35.0205 43.0541 34.6515C42.6852 34.2825 42.1847 34.0753 41.6629 34.0753H35.7605ZM6.24816 10.4654C4.68273 10.4654 3.18142 11.0873 2.07449 12.1942C0.967568 13.3011 0.345703 14.8024 0.345703 16.3679V44.8964C0.345703 47.2446 1.2785 49.4965 2.93889 51.1569C4.59928 52.8173 6.85125 53.7501 9.19939 53.7501H42.6467C44.9948 53.7501 47.2468 52.8173 48.9072 51.1569C50.5676 49.4965 51.5004 47.2446 51.5004 44.8964V27.1891C51.5004 24.8409 50.5676 22.5889 48.9072 20.9285C47.2468 19.2682 44.9948 18.3354 42.6467 18.3354H6.24816C5.72635 18.3354 5.22592 18.1281 4.85694 17.7591C4.48797 17.3901 4.28068 16.8897 4.28068 16.3679C4.28068 15.8461 4.48797 15.3456 4.85694 14.9766C5.22592 14.6077 5.72635 14.4004 6.24816 14.4004H15.2593L18.3994 10.4654H6.24816ZM4.28068 44.8964V21.9359C4.8965 22.1523 5.55954 22.2703 6.24816 22.2703H42.6467C43.9512 22.2703 45.2023 22.7886 46.1247 23.711C47.0472 24.6334 47.5654 25.8845 47.5654 27.1891V44.8964C47.5654 46.201 47.0472 47.4521 46.1247 48.3745C45.2023 49.2969 43.9512 49.8152 42.6467 49.8152H9.19939C7.89487 49.8152 6.64377 49.2969 5.72134 48.3745C4.7989 47.4521 4.28068 46.201 4.28068 44.8964Z" fill="#FFFAFA"/>
</svg>
