<svg width="32" height="34" viewBox="0 0 32 34" fill="none" xmlns="http://www.w3.org/2000/svg">
<path d="M19.6663 3.2174C19.7162 3.15429 19.7781 3.10168 19.8484 3.06259C19.9187 3.0235 19.9961 2.9987 20.076 2.98963C20.1559 2.98056 20.2369 2.98739 20.3142 3.00973C20.3914 3.03208 20.4635 3.06949 20.5263 3.11981L21.8438 4.17621L17.0265 10.3073H20.1299L23.7504 5.70104L26.805 8.14809C26.869 8.19934 26.922 8.26296 26.9608 8.33516C26.9997 8.40736 27.0236 8.48666 27.0311 8.5683C27.0386 8.64995 27.0296 8.73227 27.0046 8.81035C26.9795 8.88843 26.939 8.96067 26.8855 9.02273L25.7778 10.3073H28.9666C29.3865 9.67263 29.5541 8.9039 29.4363 8.15207C29.3184 7.40023 28.9238 6.71961 28.3298 6.24388L22.0511 1.2156C21.7375 0.96448 21.3773 0.77781 20.9913 0.666322C20.6053 0.554834 20.201 0.520724 19.8018 0.565954C19.4025 0.611183 19.0162 0.734859 18.6649 0.929875C18.3136 1.12489 18.0043 1.38741 17.7548 1.70233L10.9394 10.3073H14.0513L19.6663 3.2174ZM22.1512 21.286C21.8276 21.286 21.5174 21.4146 21.2886 21.6433C21.0598 21.8721 20.9313 22.1824 20.9313 22.5059C20.9313 22.8294 21.0598 23.1397 21.2886 23.3685C21.5174 23.5972 21.8276 23.7258 22.1512 23.7258H25.8108C26.1343 23.7258 26.4446 23.5972 26.6733 23.3685C26.9021 23.1397 27.0306 22.8294 27.0306 22.5059C27.0306 22.1824 26.9021 21.8721 26.6733 21.6433C26.4446 21.4146 26.1343 21.286 25.8108 21.286H22.1512ZM3.8532 6.64766C2.88261 6.64766 1.95178 7.03322 1.26547 7.71953C0.579167 8.40584 0.193604 9.33667 0.193604 10.3073V27.9953C0.193604 29.4512 0.771948 30.8474 1.80141 31.8769C2.83087 32.9063 4.22712 33.4847 5.68299 33.4847H26.4207C27.8766 33.4847 29.2728 32.9063 30.3023 31.8769C31.3317 30.8474 31.9101 29.4512 31.9101 27.9953V17.0165C31.9101 15.5606 31.3317 14.1644 30.3023 13.1349C29.2728 12.1055 27.8766 11.5271 26.4207 11.5271H3.8532C3.52967 11.5271 3.21939 11.3986 2.99062 11.1698C2.76185 10.9411 2.63333 10.6308 2.63333 10.3073C2.63333 9.98372 2.76185 9.67345 2.99062 9.44468C3.21939 9.21591 3.52967 9.08739 3.8532 9.08739H9.44018L11.3871 6.64766H3.8532ZM2.63333 27.9953V13.7595C3.01515 13.8937 3.42624 13.9668 3.8532 13.9668H26.4207C27.2295 13.9668 28.0052 14.2881 28.5771 14.8601C29.1491 15.432 29.4704 16.2077 29.4704 17.0165V27.9953C29.4704 28.8041 29.1491 29.5798 28.5771 30.1517C28.0052 30.7236 27.2295 31.0449 26.4207 31.0449H5.68299C4.87417 31.0449 4.09848 30.7236 3.52656 30.1517C2.95464 29.5798 2.63333 28.8041 2.63333 27.9953Z" fill="#FFFAFA"/>
</svg>
