<svg width="32" height="32" viewBox="0 0 32 32" fill="none" xmlns="http://www.w3.org/2000/svg">
<path d="M2.25 3.90278C2.25 3.49759 2.41096 3.10899 2.69748 2.82248C2.98399 2.53596 3.37259 2.375 3.77778 2.375H28.2222C28.6274 2.375 29.016 2.53596 29.3025 2.82248C29.589 3.10899 29.75 3.49759 29.75 3.90278V6.95833C29.75 7.36352 29.589 7.75212 29.3025 8.03863C29.016 8.32515 28.6274 8.48611 28.2222 8.48611H3.77778C3.37259 8.48611 2.98399 8.32515 2.69748 8.03863C2.41096 7.75212 2.25 7.36352 2.25 6.95833V3.90278ZM9.88889 19.1806C9.88889 20.8013 10.5327 22.3557 11.6788 23.5018C12.8248 24.6478 14.3792 25.2917 16 25.2917C17.6208 25.2917 19.1752 24.6478 20.3212 23.5018C21.4673 22.3557 22.1111 20.8013 22.1111 19.1806C22.1111 17.5598 21.4673 16.0054 20.3212 14.8593C19.1752 13.7133 17.6208 13.0694 16 13.0694C14.3792 13.0694 12.8248 13.7133 11.6788 14.8593C10.5327 16.0054 9.88889 17.5598 9.88889 19.1806Z" stroke="#013096" stroke-width="1.875" stroke-linecap="round" stroke-linejoin="round"/>
<path d="M26.6946 8.48615V19.1806C26.6946 22.0169 25.5678 24.7371 23.5622 26.7427C21.5566 28.7483 18.8365 29.875 16.0001 29.875C13.1638 29.875 10.4436 28.7483 8.43799 26.7427C6.4324 24.7371 5.30566 22.0169 5.30566 19.1806V8.48615M16.0001 19.1806H16.0154" stroke="#013096" stroke-width="1.875" stroke-linecap="round" stroke-linejoin="round"/>
</svg>
