<svg width="48" height="48" viewBox="0 0 48 48" fill="none" xmlns="http://www.w3.org/2000/svg">
<path d="M2 4.44444C2 3.79614 2.25754 3.17438 2.71596 2.71596C3.17438 2.25754 3.79614 2 4.44444 2H43.5556C44.2039 2 44.8256 2.25754 45.284 2.71596C45.7425 3.17438 46 3.79614 46 4.44444V9.33333C46 9.98164 45.7425 10.6034 45.284 11.0618C44.8256 11.5202 44.2039 11.7778 43.5556 11.7778H4.44444C3.79614 11.7778 3.17438 11.5202 2.71596 11.0618C2.25754 10.6034 2 9.98164 2 9.33333V4.44444ZM14.2222 28.8889C14.2222 31.4821 15.2524 33.9691 17.0861 35.8028C18.9198 37.6365 21.4068 38.6667 24 38.6667C26.5932 38.6667 29.0802 37.6365 30.9139 35.8028C32.7476 33.9691 33.7778 31.4821 33.7778 28.8889C33.7778 26.2957 32.7476 23.8086 30.9139 21.975C29.0802 20.1413 26.5932 19.1111 24 19.1111C21.4068 19.1111 18.9198 20.1413 17.0861 21.975C15.2524 23.8086 14.2222 26.2957 14.2222 28.8889Z" stroke="#FFFAFA" stroke-width="3" stroke-linecap="round" stroke-linejoin="round"/>
<path d="M41.1109 11.7778V28.8889C41.1109 33.427 39.3081 37.7793 36.0992 40.9883C32.8902 44.1972 28.5379 46 23.9998 46C19.4616 46 15.1094 44.1972 11.9004 40.9883C8.69144 37.7793 6.88867 33.427 6.88867 28.8889V11.7778M23.9998 28.8889H24.0242" stroke="#FFFAFA" stroke-width="3" stroke-linecap="round" stroke-linejoin="round"/>
</svg>
