<svg width="17" height="14" viewBox="0 0 17 14" fill="none" xmlns="http://www.w3.org/2000/svg">
<path d="M16.6543 1.68799C16.0527 1.96143 15.4043 2.14111 14.7324 2.22705C15.4199 1.81299 15.9512 1.15674 16.2012 0.367676C15.5527 0.758301 14.834 1.03174 14.0762 1.18799C13.459 0.516113 12.5918 0.125488 11.6074 0.125488C9.77148 0.125488 8.27148 1.62549 8.27148 3.47705C8.27148 3.74268 8.30273 4.00049 8.35742 4.24268C5.57617 4.10205 3.09961 2.76611 1.45117 0.742676C1.16211 1.23486 0.998047 1.81299 0.998047 2.42236C0.998047 3.58643 1.58398 4.61768 2.49023 5.20361C1.93555 5.20361 1.41992 5.04736 0.966797 4.81299V4.83643C0.966797 6.46143 2.12305 7.8208 3.6543 8.12549C3.16268 8.26003 2.64656 8.27875 2.14648 8.18018C2.35868 8.84618 2.77425 9.42893 3.33478 9.84653C3.89531 10.2641 4.57261 10.4956 5.27148 10.5083C4.08682 11.4461 2.61836 11.9531 1.10742 11.9458C0.841797 11.9458 0.576172 11.9302 0.310547 11.8989C1.79492 12.8521 3.56055 13.4067 5.45117 13.4067C11.6074 13.4067 14.9902 8.29736 14.9902 3.86768C14.9902 3.71924 14.9902 3.57861 14.9824 3.43018C15.6387 2.96143 16.2012 2.36768 16.6543 1.68799Z" fill="#013096"/>
</svg>
