<svg width="18" height="14" viewBox="0 0 18 14" fill="none" xmlns="http://www.w3.org/2000/svg">
<path d="M17.2974 1.68799C16.6958 1.96143 16.0474 2.14111 15.3755 2.22705C16.063 1.81299 16.5942 1.15674 16.8442 0.367676C16.1958 0.758301 15.477 1.03174 14.7192 1.18799C14.102 0.516113 13.2349 0.125488 12.2505 0.125488C10.4145 0.125488 8.91455 1.62549 8.91455 3.47705C8.91455 3.74268 8.9458 4.00049 9.00049 4.24268C6.21924 4.10205 3.74268 2.76611 2.09424 0.742676C1.80518 1.23486 1.64111 1.81299 1.64111 2.42236C1.64111 3.58643 2.22705 4.61768 3.1333 5.20361C2.57861 5.20361 2.06299 5.04736 1.60986 4.81299V4.83643C1.60986 6.46143 2.76611 7.8208 4.29736 8.12549C3.80574 8.26003 3.28962 8.27875 2.78955 8.18018C3.00174 8.84618 3.41731 9.42893 3.97784 9.84653C4.53838 10.2641 5.21568 10.4956 5.91455 10.5083C4.72989 11.4461 3.26142 11.9531 1.75049 11.9458C1.48486 11.9458 1.21924 11.9302 0.953613 11.8989C2.43799 12.8521 4.20361 13.4067 6.09424 13.4067C12.2505 13.4067 15.6333 8.29736 15.6333 3.86768C15.6333 3.71924 15.6333 3.57861 15.6255 3.43018C16.2817 2.96143 16.8442 2.36768 17.2974 1.68799Z" fill="#013096"/>
</svg>
